<svg width="143" height="40" viewBox="0 0 143 40" fill="none" xmlns="http://www.w3.org/2000/svg">
<path d="M33.806 1.63198C33.1382 3.37034 32.954 5.4565 32.2917 7.19668C32.2633 7.27094 32.2808 7.38748 32.3206 7.45933C32.48 7.74252 32.6769 8.00578 32.823 8.295C33.2928 9.22185 33.3803 10.1825 33.0349 11.174C32.8043 11.8363 32.4317 12.4136 31.9819 12.9443C31.8907 13.0518 31.8811 13.1339 31.9638 13.2517C32.2711 13.69 32.4613 14.1785 32.5567 14.705C32.6068 14.9834 32.6884 15.2183 32.9619 15.3928C33.7589 15.9 34.53 16.4464 35.3155 16.9711C35.7485 17.2603 36.182 17.5496 36.63 17.8134C37.0279 18.0477 37.4542 18.2337 37.8545 18.4643C38.6528 18.925 39.3266 19.5216 39.6285 20.4183C39.7976 20.9194 39.8652 21.455 39.9745 21.9761C39.9926 22.0636 39.9739 22.1542 40.1043 22.1802C40.4419 22.2478 40.5113 22.3323 40.5137 22.6795C40.5179 23.2664 40.5185 23.8533 40.5131 24.4402C40.5089 24.9094 40.3187 25.1751 39.8779 25.3484C39.7813 25.3864 39.6835 25.4244 39.5838 25.4534C39.4432 25.4939 39.3864 25.579 39.3936 25.7269C39.4208 26.3102 39.2982 26.1617 39.8393 26.434C39.8682 26.4485 39.8984 26.4606 39.9268 26.4763C40.1707 26.6103 40.2329 26.7957 40.1164 27.0481C40.0452 27.2014 39.9709 27.3536 39.8942 27.5046C39.7596 27.7708 39.4782 27.897 39.1896 27.8173C39.0078 27.7672 38.8297 27.6984 38.6455 27.6621C38.5719 27.6477 38.4535 27.6706 38.41 27.7219C37.8129 28.4356 37.014 28.7828 36.1313 28.9446C34.632 29.22 33.1835 29.0219 31.8026 28.3764C31.1656 28.0788 30.5448 27.7467 29.9139 27.4351C29.5504 27.2558 29.1748 27.0909 28.7636 27.0879C27.7866 27.0801 26.8707 27.3331 26.0084 27.7883C25.8925 27.8499 25.846 27.923 25.8937 28.0546C26.0042 28.3608 26.0978 28.6729 26.2161 28.9754C26.6008 29.9633 27.1418 30.8545 27.8676 31.6316C28.7407 32.5651 29.7913 33.251 30.9373 33.7866C32.0519 34.3077 33.1901 34.7786 34.3168 35.2731C34.3742 35.2979 34.4231 35.3414 34.5149 35.4011C34.4183 35.4253 34.3766 35.4404 34.3337 35.4464C33.7142 35.5322 33.0917 35.598 32.4764 35.7061C31.264 35.9192 30.0624 36.194 28.8989 36.5955C27.3054 37.145 25.721 37.721 24.1439 38.3151C22.8807 38.7909 21.6042 39.2172 20.2861 39.5052C19.3188 39.7166 18.3407 39.8603 17.3504 39.9327C15.0547 40.1012 12.8213 39.8585 10.6832 38.9654C9.02995 38.2753 7.64723 37.224 6.57487 35.7846C5.28815 34.0577 4.67891 32.0778 4.45308 29.9639C4.3124 28.6494 4.34078 27.3343 4.50562 26.0222C4.52011 25.9057 4.48267 25.8489 4.3758 25.7982C4.14091 25.6859 3.90724 25.5681 3.68746 25.4293C2.86688 24.9112 2.17673 24.2343 1.4594 23.5901C1.43404 23.5671 1.42197 23.5285 1.38151 23.4578C2.29024 23.354 3.16939 23.2537 4.04853 23.1529C2.30353 22.6626 1.06391 21.5256 0 20.1363C0.0700417 20.1103 0.132234 20.1025 0.191407 20.1115C0.423269 20.1465 0.65332 20.1949 0.885786 20.2232C1.53367 20.3029 2.17311 20.2649 2.79624 20.0566C3.57515 19.7969 4.18922 19.3036 4.63664 18.6358C5.29962 17.6462 5.92939 16.6336 6.54649 15.6144C7.35378 14.2793 8.19066 12.9685 9.26362 11.8249C9.42665 11.6516 9.59572 11.4843 9.77203 11.3044C9.72735 11.279 9.70682 11.2639 9.68387 11.2549C9.63557 11.2355 9.58606 11.218 9.53654 11.2017C8.4044 10.8292 7.6901 10.075 7.49145 8.88915C7.37793 8.20926 7.31936 7.52032 7.23905 6.83499C7.23483 6.79635 7.25475 6.75529 7.27106 6.68344C7.35136 6.74322 7.40872 6.78246 7.46186 6.82594C7.65387 6.98232 7.84166 7.14414 8.03668 7.2963C8.64895 7.77452 9.32159 8.09997 10.1216 8.04201C10.8806 7.98706 11.5774 7.71414 12.2537 7.38325C12.2724 7.37419 12.2815 7.344 12.3135 7.2957C12.273 7.26792 12.2307 7.24679 12.1981 7.216C11.7779 6.8193 11.5702 6.33021 11.5617 5.75418C11.5551 5.27596 11.7163 4.84545 11.9512 4.44029C12.456 3.56839 13.1986 2.90903 13.9305 2.24062C13.9558 2.21707 13.9963 2.21043 14.0669 2.17963C14.0585 2.27021 14.0518 2.32998 14.0482 2.38976C14.0355 2.61075 14.0023 2.83295 14.0168 3.05153C14.0536 3.59073 14.338 3.84011 14.8621 3.78818C15.1592 3.75859 15.4563 3.70425 15.7455 3.63059C16.7231 3.38363 17.6928 3.10708 18.6728 2.8716C20.0307 2.54494 21.4116 2.41693 22.8064 2.49965C23.7834 2.55762 24.7326 2.75869 25.6087 3.21033C26.0223 3.42348 26.4069 3.69338 26.8218 3.94758C26.8411 3.91075 26.8719 3.85641 26.9002 3.80086C27.1816 3.24536 27.6146 2.84382 28.1688 2.57332C28.3904 2.46524 28.4237 2.49422 28.4804 2.73876C28.6797 3.59979 29.0552 4.34187 29.8553 4.8062C30.1053 4.95172 30.0974 4.96319 30.2755 4.7422C31.2078 3.5847 32.538 2.60894 33.4733 1.45386" fill="url(#paint0_radial_8807_10429)"/>
<path d="M34.6732 0.000603808C34.0054 1.73897 32.9548 5.45661 32.2918 7.19679C32.2634 7.27106 32.2809 7.38759 32.3208 7.45944C32.4802 7.74263 32.677 8.00589 32.8231 8.29511C33.2929 9.22196 33.3804 10.1826 33.0351 11.1741C32.8044 11.8364 32.4319 12.4137 31.982 12.9444C31.8909 13.0519 31.8812 13.134 31.9639 13.2518C32.2712 13.6901 32.4614 14.1786 32.5569 14.7051C32.607 14.9835 32.6885 15.2184 32.962 15.3929C33.759 15.9001 34.5301 16.4465 35.3157 16.9712C35.7486 17.2605 36.1821 17.5497 36.6301 17.8135C37.028 18.0478 37.4543 18.2338 37.8547 18.4644C38.6529 18.9252 39.3267 19.5217 39.6287 20.4184C39.7977 20.9195 39.8653 21.4551 39.9746 21.9762C39.9927 22.0637 39.974 22.1543 40.1045 22.1803C40.442 22.2479 40.5114 22.3324 40.5138 22.6796C40.5181 23.2665 40.5187 23.8534 40.5132 24.4403C40.509 24.9095 40.3188 25.1752 39.878 25.3485C39.7814 25.3865 39.6836 25.4245 39.584 25.4535C39.4433 25.494 39.3865 25.5791 39.3938 25.7271C39.4209 26.3103 39.2984 26.1618 39.8394 26.4341C39.8684 26.4486 39.8986 26.4607 39.9275 26.4764C40.1715 26.6104 40.2337 26.7958 40.1171 27.0482C40.0459 27.2016 39.9716 27.3537 39.8949 27.5047C39.7603 27.7715 39.4789 27.8971 39.1903 27.8174C39.0085 27.7673 38.8304 27.6985 38.6463 27.6623C38.5726 27.6478 38.4542 27.6707 38.4108 27.722C37.8136 28.4357 37.0148 28.7829 36.132 28.9447C34.6327 29.2201 33.1842 29.022 31.8033 28.3766C31.1663 28.0789 30.5456 27.7468 29.9146 27.4352C29.5511 27.2559 29.1755 27.0911 28.7643 27.088C27.7874 27.0802 26.8714 27.3332 26.0092 27.7885C25.8932 27.85 25.8467 27.9231 25.8944 28.0547C26.0049 28.3609 26.0985 28.673 26.2169 28.9755C26.6015 29.9634 27.1425 30.8546 27.8683 31.6317C28.7414 32.5652 29.792 33.2511 30.938 33.7867C32.0527 34.3078 33.1908 34.7787 34.3176 35.2733C34.3743 35.298 34.4238 35.3415 34.5156 35.4013C34.419 35.4254 34.3773 35.4405 34.3345 35.4465C33.715 35.5323 33.0924 35.5981 32.4771 35.7062C31.2647 35.9193 30.0631 36.1941 28.8996 36.5956C27.3061 37.1451 25.7217 37.7211 24.1446 38.3152C22.8814 38.791 21.605 39.2173 20.2869 39.5053C19.3196 39.7167 18.3414 39.8604 17.3512 39.9328C15.0555 40.1019 12.822 39.8586 10.6839 38.9655C9.03068 38.2754 7.64796 37.2242 6.5756 35.7847C5.28888 34.0578 4.67964 32.0779 4.45382 29.964C4.31313 28.6495 4.34151 27.3344 4.50635 26.0223C4.52084 25.9058 4.4834 25.8496 4.37653 25.7983C4.14165 25.686 3.90797 25.5683 3.68819 25.4294C2.86761 24.9113 2.17746 24.2344 1.46014 23.5902C1.43478 23.5672 1.4227 23.5286 1.38225 23.4579C2.29098 23.3541 3.17012 23.2539 4.04926 23.153C2.30426 22.6627 1.06464 21.5258 0.000732422 20.1364C0.0707741 20.1104 0.132966 20.1026 0.19214 20.1116C0.424002 20.1467 0.654053 20.195 0.886519 20.2233C1.5344 20.303 2.17384 20.265 2.79757 20.0567C3.57648 19.7971 4.19056 19.3037 4.63798 18.6353C5.30096 17.6457 5.93073 16.6331 6.54782 15.6139C7.35511 14.2789 8.19199 12.968 9.26496 11.8244C9.42799 11.6511 9.59705 11.4838 9.77336 11.3039C9.72868 11.2785 9.70815 11.2634 9.68521 11.2544C9.6369 11.2351 9.58739 11.2175 9.53788 11.2012C8.40574 10.8287 7.69143 10.0745 7.49278 8.88866C7.37927 8.20877 7.3207 7.51982 7.24039 6.8345C7.23616 6.79586 7.25609 6.7548 7.27239 6.68295C7.3527 6.74272 7.41006 6.78137 7.4632 6.82545C7.65521 6.98183 7.84299 7.14365 8.03802 7.29581C8.65028 7.77403 9.32292 8.09948 10.123 8.04151C10.882 7.98657 11.5788 7.71365 12.255 7.38276C12.2737 7.3737 12.2828 7.34351 12.3148 7.29521C12.2743 7.26743 12.2321 7.2463 12.1995 7.21551C11.7792 6.8188 11.5715 6.32972 11.5631 5.75369C11.5564 5.27547 11.7176 4.84495 11.9525 4.4398C12.4573 3.5679 13.2 2.90854 13.9318 2.24013C13.9572 2.21658 13.9976 2.20994 14.0683 2.17914C14.0598 2.26971 14.0532 2.32949 14.0495 2.38927C14.0369 2.61026 14.0036 2.83246 14.0181 3.05104C14.055 3.59024 14.3394 3.83961 14.8635 3.78769C15.1605 3.7581 15.4576 3.70376 15.7468 3.63009C16.7244 3.38314 17.6941 3.10659 18.6741 2.87111C20.0321 2.54445 21.413 2.41644 22.8078 2.49916C23.7847 2.55713 24.7339 2.75819 25.61 3.20984C26.0236 3.42299 26.4083 3.69289 26.8231 3.94709C26.8424 3.91026 26.8732 3.85592 26.9016 3.80037C27.183 3.24486 27.6159 2.84333 28.1702 2.57283C28.3918 2.46474 28.425 2.49373 28.4818 2.73827C28.681 3.5993 29.0566 4.34138 29.8566 4.80571C30.1066 4.95123 30.0987 4.9627 30.2769 4.7417C31.2092 3.5842 33.4571 1.15508 34.3924 0M30.4961 12.9179C30.4369 12.8665 30.3807 12.8031 30.3113 12.776C30.2569 12.7548 30.1827 12.7748 30.1193 12.788C30.0704 12.7983 30.0269 12.8321 29.9786 12.8442C28.2245 13.2856 26.8231 12.7717 25.8304 11.1064C25.7344 10.9458 25.6596 10.7719 25.5629 10.6119C25.5328 10.5612 25.4675 10.5244 25.4108 10.4984C25.1089 10.3607 24.8082 10.2194 24.4996 10.0987C24.3396 10.0359 24.2533 9.93566 24.1935 9.77927C23.6211 8.28606 22.7027 7.04161 21.4703 6.02782C21.0634 5.6927 20.6268 5.39925 20.1202 5.17524C20.1202 5.23381 20.1069 5.2797 20.122 5.31291C20.5803 6.3267 21.0199 7.34955 21.509 8.34885C21.8205 8.98587 22.2492 9.54802 22.8959 9.89762C23.0529 9.98215 23.222 10.0443 23.4128 10.1289C23.0378 10.1959 22.6943 10.2515 22.3525 10.3191C20.6987 10.6469 19.1861 11.3015 17.8372 12.3147C15.8754 13.7874 14.5495 15.7213 13.7488 18.0267C13.0708 19.9776 12.8341 21.9834 13.0683 24.0352C13.3437 26.448 14.1842 28.6326 15.7903 30.4845C17.1054 32.0012 18.7453 33.0204 20.6697 33.5826C21.0193 33.6846 21.3755 33.7631 21.7288 33.8507C21.7704 33.8609 21.8151 33.8609 21.9184 33.8724C20.0278 31.7851 18.621 29.4839 17.9538 26.7638C20.0139 29.7134 22.6381 31.939 26.0333 33.1847C26.0484 33.1684 26.0635 33.1521 26.0786 33.1358C25.8981 32.9353 25.7157 32.7367 25.537 32.5338C24.5896 31.459 23.7968 30.2888 23.3482 28.9139C23.2316 28.5559 23.1604 28.1833 23.0553 27.8217C23.0336 27.7462 22.9678 27.6562 22.8989 27.6254C21.5512 27.0156 20.3974 26.1527 19.4669 25.0013C18.5322 23.845 17.9314 22.545 17.8046 21.0469C17.6839 19.6244 18.0395 18.3232 18.7967 17.1234C18.8407 17.0533 18.8969 16.99 18.9923 16.9362C18.9669 17.0817 18.9488 17.2291 18.9156 17.3728C18.7423 18.1263 18.688 18.8901 18.6886 19.6612C18.6898 20.8024 18.9168 21.8905 19.4874 22.8855C20.2283 24.1771 21.3302 25.0121 22.7824 25.3563C24.6337 25.7947 26.3515 25.4137 27.9498 24.4355C28.37 24.1783 28.7462 23.8504 29.1417 23.5533C29.1713 23.531 29.1906 23.4954 29.2365 23.4386C28.2481 22.8904 27.6437 22.0831 27.5446 20.9467C27.5126 20.579 27.541 20.2125 27.695 19.826C27.7874 20.0458 27.8574 20.2288 27.9401 20.4063C28.2916 21.1574 28.9141 21.5614 29.7081 21.6616C30.3191 21.7389 30.9417 21.719 31.5594 21.7461C32.0593 21.7685 32.5617 21.7733 33.0574 21.8325C33.2567 21.8566 33.4469 21.9955 33.6292 22.1024C33.6884 22.1374 33.7089 22.237 33.7476 22.3077C33.6775 22.3324 33.6087 22.3735 33.5368 22.3789C33.0689 22.4146 32.6009 22.4417 32.1324 22.4731C32.1016 22.4749 32.072 22.4846 31.9917 22.5003C32.0798 22.5703 32.1318 22.6223 32.1928 22.6585C33.4336 23.3988 34.7312 24.011 36.1223 24.418C36.9097 24.6487 37.7073 24.8038 38.5291 24.7169C38.8214 24.6861 39.1094 24.5828 39.3895 24.485C39.4608 24.4603 39.5266 24.3365 39.5405 24.2495C39.5646 24.0944 39.5471 23.9325 39.5471 23.7266C39.0635 23.9845 38.6082 24.1529 38.0859 24.0557C38.1934 23.9959 38.3051 23.9428 38.4071 23.8752C38.537 23.7894 38.6674 23.7013 38.7815 23.5974C38.9681 23.4284 39.0562 23.2194 39.0502 22.9556C39.0357 22.2775 39.0393 21.5994 38.7972 20.9503C38.569 20.3369 38.1662 19.8472 37.7067 19.3961C37.6844 19.3738 37.6542 19.3587 37.6258 19.3436C37.6162 19.3382 37.6011 19.343 37.5546 19.343C37.6228 19.8623 37.6898 20.3767 37.7568 20.8912C37.7424 20.8966 37.7279 20.902 37.7134 20.9081C37.583 20.6937 37.4513 20.4806 37.3227 20.2656C37.086 19.8683 36.8548 19.468 36.6126 19.0743C36.5565 18.9831 36.4768 18.8974 36.388 18.8376C34.3628 17.4609 32.3353 16.0885 30.3083 14.7142C30.2249 14.658 30.1458 14.5952 30.0794 14.5041C30.5625 14.5669 31.0461 14.6303 31.566 14.6979C31.4096 13.9431 31.034 13.381 30.4961 12.9179ZM4.56673 24.3763C5.30881 24.5448 6.06055 24.6173 6.81833 24.5532C8.01749 24.4524 9.07295 23.7755 9.60067 22.4538C8.88879 23.2798 8.06821 23.7924 7.01698 23.8546C7.00853 23.8389 7.00068 23.8238 6.99223 23.8081C7.13291 23.7351 7.27722 23.6669 7.41489 23.5878C8.08874 23.1983 8.56756 22.6108 8.97694 21.9726C9.56384 21.0572 10.1145 20.1183 10.6809 19.1896C11.3058 18.165 11.9567 17.1584 12.79 16.2859C13.0369 16.0269 13.3075 15.7908 13.5677 15.5438C13.6226 15.4913 13.6794 15.4406 13.7356 15.3893C13.7265 15.3736 13.7174 15.3573 13.7084 15.3416C13.4572 15.4635 13.2018 15.5776 12.9554 15.7093C11.5649 16.4514 10.5746 17.5883 9.78967 18.9276C9.29575 19.7705 8.81935 20.6249 8.29403 21.4479C7.65581 22.4478 6.80686 23.2339 5.68498 23.6626C5.16631 23.8613 4.61201 23.9669 4.07342 24.1149C4.01485 24.1306 3.95628 24.1457 3.89771 24.1608C3.89711 24.1795 3.89711 24.1982 3.8965 24.2175C4.11991 24.2701 4.34272 24.325 4.56673 24.3763ZM31.1735 24.4506C31.1621 24.6124 31.2991 24.6239 31.4157 24.6468C31.9573 24.7531 32.4983 24.8606 33.0393 25.0121C32.9874 25.0194 32.9354 25.0284 32.8835 25.0327C32.4162 25.0695 31.9482 25.1021 31.4809 25.1432C31.2526 25.1631 31.2224 25.1975 31.3021 25.4143C31.3818 25.6323 31.4978 25.8375 31.6004 26.0471C31.6614 26.1715 31.7574 26.1932 31.8933 26.166C33.0779 25.9323 34.2741 25.7959 35.4823 25.785C36.4158 25.7766 37.3438 25.852 38.2671 25.9885C38.4373 26.0139 38.4875 25.9493 38.4657 25.7808C38.4476 25.6437 38.3486 25.6697 38.2604 25.6618C37.7562 25.6141 37.2478 25.5888 36.7479 25.5103C35.9026 25.3774 35.0983 25.0918 34.3085 24.7688C33.3189 24.3637 32.3703 23.877 31.4688 23.301C31.432 23.2774 31.3903 23.2617 31.2846 23.2098C31.2442 23.6536 31.2025 24.0515 31.1735 24.4506ZM19.6124 8.17254C19.1602 7.3423 16.9738 6.91722 16.2148 7.0561C14.9788 7.28192 13.8642 7.84709 12.7073 8.29813C12.0533 8.55294 11.3976 8.81077 10.7262 9.00942C10.0493 9.20988 9.35009 9.23041 8.66598 9.00217C8.49148 8.9436 8.32785 8.85122 8.13282 8.76186C8.14791 8.82345 8.15093 8.85967 8.16542 8.89107C8.50295 9.62108 9.15325 9.926 9.97081 9.7684C10.705 9.62651 11.3898 9.34936 12.0775 9.0704C13.0231 8.68759 13.9674 8.29692 14.9317 7.96604C15.5343 7.75893 16.1755 7.66595 16.8198 7.76437C17.426 7.85675 19.3582 8.46478 19.767 8.9273C19.8298 8.99855 19.8745 9.0849 19.9276 9.1646C19.9584 9.14346 19.9898 9.12233 20.0206 9.1018C19.8865 8.79084 19.7736 8.46841 19.6124 8.17254ZM29.1272 7.94189C29.51 8.3881 29.9792 8.70389 30.5468 8.86571C30.5896 8.87779 30.6814 8.84458 30.6953 8.81016C30.9079 8.28606 31.1138 7.75893 31.3118 7.22939C31.3257 7.19196 31.2852 7.10803 31.2454 7.07965C30.9507 6.86711 30.6518 6.65879 30.3475 6.46014C30.3028 6.43116 30.1863 6.43478 30.1579 6.4692C29.8017 6.89307 29.4557 7.32479 29.1073 7.75531C29.088 7.77946 29.0765 7.81086 29.0596 7.84226C29.0837 7.87909 29.1025 7.9129 29.1272 7.94189ZM29.1067 12.3926C29.4315 11.5919 29.7455 10.7864 30.0486 9.97732C30.0704 9.91996 30.0076 9.79256 29.9472 9.74848C29.4968 9.42363 29.0409 9.10482 28.5747 8.80231C28.5065 8.75763 28.329 8.76367 28.2849 8.8162C27.7409 9.46348 27.2113 10.1234 26.68 10.7816C26.6498 10.8184 26.6329 10.8661 26.6069 10.9144C26.6063 10.9144 27.4064 12.6739 29.1067 12.3926ZM37.5986 26.9661C37.0377 26.7028 34.6327 26.6944 33.5785 26.9564C34.518 27.8657 36.8234 27.8639 37.5986 26.9661ZM31.6016 4.64751C31.3203 4.99651 31.0455 5.35215 30.7569 5.69512C30.6555 5.81588 30.6669 5.90041 30.7811 5.98615C30.9628 6.12201 31.1476 6.25424 31.3305 6.38829C31.4591 6.48188 31.5328 6.44807 31.5883 6.29953C31.8214 5.67881 32.0611 5.06112 32.299 4.44282C32.4433 4.06846 32.5876 3.6941 32.7326 3.31974C32.7187 3.31309 32.7048 3.30645 32.6915 3.29981C32.3286 3.74965 31.9645 4.19828 31.6016 4.64751ZM29.6694 24.8974C29.6417 25.468 30.0686 26.0561 30.7013 26.2868C30.3179 25.247 30.3379 24.1934 30.4176 23.1277C30.0366 23.6687 29.702 24.2272 29.6694 24.8974Z" fill="black"/>
<path d="M31.2845 23.2092C31.244 23.6536 31.2024 24.0515 31.1734 24.4507C31.1619 24.6125 31.299 24.624 31.4155 24.6469C31.9571 24.7532 32.4982 24.8606 33.0392 25.0122C32.9872 25.0194 32.9353 25.0285 32.8834 25.0327C32.416 25.0696 31.9481 25.1022 31.4807 25.1432C31.2525 25.1632 31.2223 25.1976 31.302 25.4143C31.3817 25.6323 31.4976 25.8376 31.6003 26.0471C31.6613 26.1715 31.7573 26.1932 31.8931 26.1661C33.0778 25.9324 34.274 25.7959 35.4822 25.7851C36.4157 25.7766 37.3437 25.8521 38.2669 25.9886C38.4372 26.0139 38.4873 25.9493 38.4656 25.7808C38.4475 25.6438 38.3485 25.6697 38.2603 25.6619C37.7561 25.6142 37.2477 25.5888 36.7478 25.5103C35.9024 25.3775 35.0982 25.0919 34.3084 24.7689C33.3187 24.3637 32.3702 23.877 31.4687 23.301C31.4318 23.2769 31.3896 23.2612 31.2845 23.2092Z" fill="white"/>
<path d="M22.743 14.1793C23.3528 13.4614 24.0901 13.1003 24.9499 13.622C25.4142 13.9034 25.8218 14.2765 26.2632 14.5977C26.62 14.8568 26.9787 15.1164 27.3561 15.3428C27.568 15.4696 27.8518 15.3332 27.9116 15.0917C27.9587 14.9015 27.9508 14.6968 27.9581 14.4981C27.9611 14.4269 27.9375 14.355 27.9194 14.2391C27.9834 14.2868 28.007 14.2983 28.0221 14.317C28.2896 14.6424 28.5051 14.9999 28.6108 15.4081C28.6657 15.62 28.702 15.8585 28.5293 16.0408C28.4067 16.1701 28.4671 16.2353 28.5679 16.321C29.0196 16.705 29.4694 17.0909 29.918 17.4785C30.0358 17.5799 30.1481 17.688 30.2628 17.7931C30.2018 17.8154 30.1662 17.8058 30.1336 17.7901C29.1433 17.3276 28.1549 16.8626 27.1617 16.4067C27.0705 16.3651 26.9425 16.353 26.8465 16.3802C26.4214 16.5015 25.9927 16.5426 25.5525 16.5185C25.0338 16.4901 24.654 16.2455 24.3787 15.8174C24.1311 15.4328 24.0025 15.0047 23.9228 14.5591C23.8449 14.1225 23.7193 14.0247 23.2774 14.0875C23.1433 14.1062 23.0141 14.1576 22.8831 14.195C22.8372 14.2083 22.7913 14.224 22.7375 14.2415C22.7406 14.2041 22.7363 14.1872 22.743 14.1793ZM25.0048 15.559C25.3587 15.975 25.8363 15.9195 26.3067 15.8573C26.4081 15.844 26.5059 15.8078 26.6061 15.7824C26.5289 15.5409 24.8134 14.195 24.5224 14.1672C24.5973 14.6768 24.6709 15.1659 25.0048 15.559Z" fill="black"/>
<path d="M32.7566 19.7211C32.8925 19.4246 33.0912 19.3467 33.3719 19.5248C33.7046 19.7362 34.009 19.9922 34.3253 20.2295C34.3737 20.2657 34.4189 20.3055 34.492 20.3653C34.492 20.2977 34.4998 20.2699 34.4908 20.2494C34.2185 19.6552 33.9099 19.0834 33.387 18.6662C33.2626 18.5672 33.1117 18.4947 32.9632 18.4343C32.7512 18.3486 32.5381 18.3619 32.363 18.5267C32.1752 18.703 32.1885 18.9295 32.2627 19.1438C32.3479 19.3896 32.5212 19.5743 32.7566 19.7211Z" fill="black"/>
<path d="M24.5225 14.167C24.5973 14.6766 24.671 15.1657 25.0049 15.5588C25.3587 15.9748 25.8363 15.9192 26.3067 15.8571C26.4082 15.8438 26.506 15.8075 26.6062 15.7822C26.5295 15.5407 24.8135 14.1942 24.5225 14.167Z" fill="url(#paint1_radial_8807_10429)"/>
<path d="M31.9209 8.17261C31.9209 8.17261 33.5523 9.91641 31.5471 12.6698C31.5471 12.6698 31.0133 11.0039 31.314 9.98403C31.6147 8.9642 31.9209 8.17261 31.9209 8.17261Z" fill="url(#paint2_linear_8807_10429)"/>
<path d="M28.08 3.08301C28.08 3.08301 27.9369 5.20056 29.3039 5.93842L27.9104 7.46786C27.9098 7.46847 26.4479 5.1909 28.08 3.08301Z" fill="url(#paint3_linear_8807_10429)"/>
<path d="M11.0153 24.5757C11.0153 24.5757 -2.5613 44.8437 31.7108 34.9008C31.7108 34.9014 7.97515 38.4198 11.0153 24.5757Z" fill="url(#paint4_linear_8807_10429)"/>
<path d="M12.1371 20.3652C12.1371 20.3652 7.01257 25.1788 7.16534 31.1106C7.16534 31.1106 7.62423 26.1751 12.1371 20.3652Z" fill="url(#paint5_linear_8807_10429)"/>
<path d="M21.4685 9.78149C21.4685 9.78149 8.84827 10.5224 5.55933 19.9581C5.55933 19.9581 4.69226 21.7194 2.27039 21.057C2.27039 21.057 5.35524 25.4419 8.3622 19.9581C8.3622 19.9581 10.6446 12.3664 21.4685 9.78149Z" fill="url(#paint6_linear_8807_10429)"/>
<path d="M27.3079 8.1725C27.3079 8.1725 24.6808 0.131588 15.9443 4.87088C15.9443 4.87088 11.8649 7.16897 13.5985 3.37524C13.5985 3.37524 11.2062 5.56465 12.9802 7.0941C14.7542 8.62354 18.9844 3.4471 20.6274 6.44078L20.1226 5.31166L20.1208 5.17399C20.1208 5.17399 21.544 5.77417 22.6447 7.1732C22.6447 7.1738 24.2581 5.40887 27.3079 8.1725Z" fill="url(#paint7_linear_8807_10429)"/>
<path d="M19.2754 9.25344C19.2754 9.25344 15.7044 6.22716 11.3208 11.7007C11.3214 11.7007 14.1768 7.87616 19.2754 9.25344Z" fill="url(#paint8_linear_8807_10429)"/>
<path d="M67.6275 18.2839C67.6275 18.9564 67.5174 19.6069 67.2971 20.2368C67.0769 20.8668 66.7245 21.5495 66.2421 22.2837C66.7245 23.0186 67.0769 23.7007 67.2971 24.3306C67.5174 24.9605 67.6275 25.6117 67.6275 26.2835V26.945C67.6275 27.8062 67.4645 28.6138 67.1393 29.37C66.8133 30.1261 66.3677 30.7869 65.8009 31.3537C65.2341 31.9205 64.5726 32.3668 63.8164 32.6921C63.061 33.0181 62.2519 33.1803 61.3914 33.1803H43.6927V20.079H48.1022H50.1175H61.3922C62.6094 20.079 63.2188 19.4806 63.2188 18.2839V17.6225C63.2188 16.4052 62.6094 15.7958 61.3922 15.7958H48.1022V19.1026H43.6927V11.4187H61.3922C62.2526 11.4187 63.0617 11.5817 63.8172 11.9069C64.5726 12.2329 65.2341 12.6734 65.8016 13.2299C66.3684 13.7864 66.814 14.442 67.14 15.1982C67.4653 15.9537 67.6282 16.7627 67.6282 17.6232V18.2839H67.6275ZM63.2188 26.2835C63.2188 25.0662 62.6094 24.4569 61.3922 24.4569H48.1022V28.74H61.3922C62.6094 28.74 63.2188 28.1417 63.2188 26.945V26.2835Z" fill="url(#paint9_radial_8807_10429)"/>
<path d="M92.3178 26.9912C92.3178 27.8501 92.1548 28.657 91.8295 29.411C91.5036 30.165 91.0579 30.8191 90.4911 31.3742C89.9243 31.9292 89.2629 32.369 88.5074 32.6942C87.7519 33.0187 86.9429 33.181 86.0824 33.181H69.8947V28.7407H86.0824C87.2997 28.7407 87.909 28.1534 87.909 26.9772V26.2842C87.909 25.0875 87.2997 24.4891 86.0824 24.4891H76.1307C75.2695 24.4891 74.4619 24.3313 73.7057 24.0163C72.9503 23.7013 72.2888 23.266 71.722 22.7095C71.1552 22.1537 70.7089 21.4966 70.3836 20.7411C70.0576 19.9857 69.8954 19.1663 69.8954 18.2846V17.6231C69.8954 16.7627 70.0576 15.9595 70.3836 15.2136C70.7089 14.4684 71.1552 13.8179 71.722 13.2607C72.2888 12.7049 72.9503 12.2637 73.7057 11.9377C74.4619 11.6124 75.2695 11.4495 76.1307 11.4495H92.3185V15.8273H76.1307C74.9127 15.8273 74.3041 16.4367 74.3041 17.654V18.3154C74.3041 19.5121 74.9127 20.1105 76.1307 20.1105H86.0824C86.9429 20.1105 87.7519 20.2727 88.5074 20.598C89.2636 20.9225 89.9243 21.3623 90.4911 21.9173C91.0579 22.4723 91.5036 23.1272 91.8295 23.8812C92.1548 24.6352 92.3178 25.4413 92.3178 26.3003V26.9912Z" fill="url(#paint10_radial_8807_10429)"/>
<path d="M118.142 26.9765C118.142 27.8377 117.979 28.6453 117.654 29.4014C117.328 30.1569 116.888 30.814 116.331 31.3698C115.775 31.9263 115.118 32.3675 114.363 32.6927C113.607 33.0187 112.798 33.181 111.938 33.181H100.349C99.4876 33.181 98.6845 33.0187 97.9393 32.6927C97.1941 32.3675 96.5429 31.9263 95.9864 31.3698C95.4299 30.814 94.9886 30.1569 94.6634 29.4014C94.3374 28.646 94.1752 27.8377 94.1752 26.9765V17.6231C94.1752 16.7627 94.3374 15.9595 94.6634 15.2136C94.9886 14.4684 95.4299 13.8179 95.9864 13.2607C96.5421 12.7049 97.1934 12.2637 97.9393 11.9377C98.6845 11.6124 99.4876 11.4495 100.349 11.4495H111.938C112.799 11.4495 113.607 11.6132 114.363 11.9414C115.119 12.2688 115.775 12.7137 116.332 13.2739C116.888 13.8348 117.329 14.4897 117.655 15.2385C117.98 15.9881 118.143 16.7935 118.143 17.654V20.236H113.734V17.654C113.734 16.4367 113.136 15.8273 111.939 15.8273H100.349C99.1308 15.8273 98.5222 16.4352 98.5222 17.6495V26.9801C98.5222 28.1534 99.1308 28.7392 100.349 28.7392H111.938C113.135 28.7392 113.734 28.1519 113.734 26.9757L113.67 24.299H118.08L118.142 26.9765Z" fill="url(#paint11_radial_8807_10429)"/>
<path d="M142.499 26.9912C142.499 27.8501 142.336 28.657 142.011 29.411C141.685 30.165 141.239 30.8191 140.673 31.3742C140.106 31.9292 139.444 32.369 138.689 32.6942C137.933 33.0187 137.124 33.181 136.264 33.181H120.076V28.7407H136.264C137.481 28.7407 138.09 28.1534 138.09 26.9772V26.2842C138.09 25.0875 137.481 24.4891 136.264 24.4891H126.312C125.451 24.4891 124.643 24.3313 123.887 24.0163C123.132 23.7013 122.47 23.266 121.903 22.7095C121.337 22.1537 120.89 21.4966 120.565 20.7411C120.239 19.9857 120.077 19.1663 120.077 18.2846V17.6231C120.077 16.7627 120.239 15.9595 120.565 15.2136C120.89 14.4684 121.337 13.8179 121.903 13.2607C122.47 12.7049 123.132 12.2637 123.887 11.9377C124.643 11.6124 125.451 11.4495 126.312 11.4495H142.5V15.8273H126.312C125.094 15.8273 124.485 16.4367 124.485 17.654V18.3154C124.485 19.5121 125.094 20.1105 126.312 20.1105H136.264C137.124 20.1105 137.933 20.2727 138.689 20.598C139.445 20.9225 140.106 21.3623 140.673 21.9173C141.239 22.4723 141.685 23.1272 142.011 23.8812C142.336 24.6352 142.499 25.4413 142.499 26.3003V26.9912Z" fill="url(#paint12_radial_8807_10429)"/>
<defs>
<radialGradient id="paint0_radial_8807_10429" cx="0" cy="0" r="1" gradientUnits="userSpaceOnUse" gradientTransform="translate(27.5481 16.4114) rotate(180) scale(29.5289)">
<stop stop-color="#F5CB11"/>
<stop offset="0.2302" stop-color="#F4C912"/>
<stop offset="0.3562" stop-color="#EFC113"/>
<stop offset="0.4569" stop-color="#E7B316"/>
<stop offset="0.5443" stop-color="#DCA01B"/>
<stop offset="0.6222" stop-color="#CE8721"/>
<stop offset="0.6938" stop-color="#BC6828"/>
<stop offset="0.6982" stop-color="#BB6628"/>
</radialGradient>
<radialGradient id="paint1_radial_8807_10429" cx="0" cy="0" r="1" gradientUnits="userSpaceOnUse" gradientTransform="translate(25.5646 15.0334) scale(5.59147 5.59147)">
<stop stop-color="#F5CB11"/>
<stop offset="0.1056" stop-color="#E2AA19"/>
<stop offset="0.2228" stop-color="#D18C1F"/>
<stop offset="0.3388" stop-color="#C57724"/>
<stop offset="0.4518" stop-color="#BD6A27"/>
<stop offset="0.5581" stop-color="#BB6628"/>
</radialGradient>
<linearGradient id="paint2_linear_8807_10429" x1="31.2222" y1="10.4209" x2="32.547" y2="10.4209" gradientUnits="userSpaceOnUse">
<stop stop-color="#250E00"/>
<stop offset="0.2378" stop-color="#291100"/>
<stop offset="0.4841" stop-color="#361B00"/>
<stop offset="0.7343" stop-color="#4A2B00"/>
<stop offset="0.9857" stop-color="#674200"/>
<stop offset="1" stop-color="#694300"/>
</linearGradient>
<linearGradient id="paint3_linear_8807_10429" x1="27.3078" y1="5.27585" x2="29.3036" y2="5.27585" gradientUnits="userSpaceOnUse">
<stop stop-color="#250E00"/>
<stop offset="0.2378" stop-color="#291100"/>
<stop offset="0.4841" stop-color="#361B00"/>
<stop offset="0.7343" stop-color="#4A2B00"/>
<stop offset="0.9857" stop-color="#674200"/>
<stop offset="1" stop-color="#694300"/>
</linearGradient>
<linearGradient id="paint4_linear_8807_10429" x1="8.3623" y1="31.1109" x2="31.7106" y2="31.1109" gradientUnits="userSpaceOnUse">
<stop stop-color="#250E00"/>
<stop offset="0.2378" stop-color="#291100"/>
<stop offset="0.4841" stop-color="#361B00"/>
<stop offset="0.7343" stop-color="#4A2B00"/>
<stop offset="0.9857" stop-color="#674200"/>
<stop offset="1" stop-color="#694300"/>
</linearGradient>
<linearGradient id="paint5_linear_8807_10429" x1="7.16208" y1="25.7382" x2="12.137" y2="25.7382" gradientUnits="userSpaceOnUse">
<stop stop-color="#250E00"/>
<stop offset="0.2378" stop-color="#291100"/>
<stop offset="0.4841" stop-color="#361B00"/>
<stop offset="0.7343" stop-color="#4A2B00"/>
<stop offset="0.9857" stop-color="#674200"/>
<stop offset="1" stop-color="#694300"/>
</linearGradient>
<linearGradient id="paint6_linear_8807_10429" x1="2.27052" y1="16.2494" x2="21.4682" y2="16.2494" gradientUnits="userSpaceOnUse">
<stop stop-color="#250E00"/>
<stop offset="0.2378" stop-color="#291100"/>
<stop offset="0.4841" stop-color="#361B00"/>
<stop offset="0.7343" stop-color="#4A2B00"/>
<stop offset="0.9857" stop-color="#674200"/>
<stop offset="1" stop-color="#694300"/>
</linearGradient>
<linearGradient id="paint7_linear_8807_10429" x1="12.3256" y1="5.77384" x2="27.3079" y2="5.77384" gradientUnits="userSpaceOnUse">
<stop stop-color="#250E00"/>
<stop offset="0.2378" stop-color="#291100"/>
<stop offset="0.4841" stop-color="#361B00"/>
<stop offset="0.7343" stop-color="#4A2B00"/>
<stop offset="0.9857" stop-color="#674200"/>
<stop offset="1" stop-color="#694300"/>
</linearGradient>
<linearGradient id="paint8_linear_8807_10429" x1="11.3212" y1="10.0597" x2="19.2756" y2="10.0597" gradientUnits="userSpaceOnUse">
<stop stop-color="#250E00"/>
<stop offset="0.2378" stop-color="#291100"/>
<stop offset="0.4841" stop-color="#361B00"/>
<stop offset="0.7343" stop-color="#4A2B00"/>
<stop offset="0.9857" stop-color="#674200"/>
<stop offset="1" stop-color="#694300"/>
</linearGradient>
<radialGradient id="paint9_radial_8807_10429" cx="0" cy="0" r="1" gradientUnits="userSpaceOnUse" gradientTransform="translate(-40.0439 -18.3108) scale(331.919 331.919)">
<stop stop-color="#F5CB11"/>
<stop offset="0.169" stop-color="#F0C213"/>
<stop offset="0.4483" stop-color="#E1A919"/>
<stop offset="0.8014" stop-color="#CA8022"/>
<stop offset="1" stop-color="#BB6628"/>
</radialGradient>
<radialGradient id="paint10_radial_8807_10429" cx="0" cy="0" r="1" gradientUnits="userSpaceOnUse" gradientTransform="translate(-40.0439 -18.3109) scale(331.919 331.919)">
<stop stop-color="#F5CB11"/>
<stop offset="0.169" stop-color="#F0C213"/>
<stop offset="0.4483" stop-color="#E1A919"/>
<stop offset="0.8014" stop-color="#CA8022"/>
<stop offset="1" stop-color="#BB6628"/>
</radialGradient>
<radialGradient id="paint11_radial_8807_10429" cx="0" cy="0" r="1" gradientUnits="userSpaceOnUse" gradientTransform="translate(-40.0439 -18.3109) scale(331.919 331.919)">
<stop stop-color="#F5CB11"/>
<stop offset="0.169" stop-color="#F0C213"/>
<stop offset="0.4483" stop-color="#E1A919"/>
<stop offset="0.8014" stop-color="#CA8022"/>
<stop offset="1" stop-color="#BB6628"/>
</radialGradient>
<radialGradient id="paint12_radial_8807_10429" cx="0" cy="0" r="1" gradientUnits="userSpaceOnUse" gradientTransform="translate(10.1375 -18.3109) scale(331.919 331.919)">
<stop stop-color="#F5CB11"/>
<stop offset="0.169" stop-color="#F0C213"/>
<stop offset="0.4483" stop-color="#E1A919"/>
<stop offset="0.8014" stop-color="#CA8022"/>
<stop offset="1" stop-color="#BB6628"/>
</radialGradient>
</defs>
</svg>
